<?xml version="1.0" encoding="UTF-8"?><svg id="Capa_2" xmlns="http://www.w3.org/2000/svg" viewBox="0 0 69.02 81.77"><g id="Capa_1-2"><g><g><g><path d="M28.88,41.17c0,1.83-.34,3.47-1.01,4.91-.67,1.44-1.58,2.66-2.73,3.66-1.15,1-2.48,1.77-3.99,2.31-1.51,.54-3.11,.81-4.8,.81h-7.87V29.48h7.87c1.68,0,3.28,.27,4.8,.81,1.51,.54,2.84,1.31,3.99,2.31,1.15,1,2.06,2.22,2.73,3.66,.67,1.44,1.01,3.08,1.01,4.91Zm-5.68,0c0-1.12-.2-2.11-.6-2.97-.4-.85-.95-1.57-1.63-2.14-.68-.57-1.48-1-2.38-1.28-.9-.28-1.87-.42-2.89-.42h-1.76v13.62h1.76c1.03,0,1.99-.14,2.89-.42,.9-.28,1.7-.71,2.38-1.28,.68-.57,1.23-1.28,1.63-2.12,.4-.84,.6-1.84,.6-2.98Z"/><path d="M51.62,48.38c-.54,1.05-1.26,1.94-2.18,2.67-.92,.73-1.99,1.3-3.22,1.7-1.23,.4-2.55,.6-3.94,.6s-2.7-.2-3.94-.6c-1.23-.4-2.31-.97-3.22-1.7-.92-.73-1.64-1.62-2.16-2.67-.53-1.05-.79-2.22-.79-3.52v-15.38h5.68v14.87c0,1.2,.41,2.17,1.23,2.91,.82,.75,1.91,1.12,3.28,1.12s2.47-.37,3.3-1.12c.83-.74,1.25-1.71,1.25-2.91v-14.87h5.53v15.38c0,1.29-.27,2.47-.81,3.52Z"/></g><g><path d="M32.44,.55h-4.65l-5.05,9.81c-.42,.81-.82,1.64-1.21,2.51-.39,.87-.73,1.69-1.03,2.47h-.07c-.32-.78-.7-1.64-1.15-2.56-.45-.93-.85-1.73-1.19-2.42L13,.55h-4.52V23.92h3.35l.73-8.61c.05-.66,.1-1.34,.15-2.05,.05-.71,.07-1.45,.07-2.23h.07c.29,.76,.61,1.51,.95,2.25s.68,1.46,1.03,2.14l4.43,8.57h2.27l4.4-8.57c.34-.69,.69-1.4,1.04-2.16,.35-.76,.67-1.51,.93-2.27h.07c0,.76,.02,1.5,.07,2.22,.05,.72,.1,1.42,.15,2.1l.77,8.61h5.57L32.44,.55Z"/><path d="M61.38,7.14c-.71-1.52-1.65-2.8-2.82-3.85-1.17-1.05-2.52-1.86-4.03-2.44-1.52-.57-3.08-.86-4.69-.86s-3.17,.29-4.69,.86c-1.51,.57-2.85,1.38-4.01,2.44-1.16,1.05-2.09,2.33-2.8,3.85-.71,1.51-1.06,3.2-1.06,5.05s.35,3.58,1.06,5.09c.71,1.52,1.64,2.8,2.8,3.86,1.16,1.06,2.5,1.88,4.01,2.45,1.52,.57,3.08,.86,4.69,.86s3.17-.29,4.69-.86c1.51-.57,2.86-1.39,4.03-2.45,1.17-1.06,2.11-2.35,2.82-3.86,.71-1.51,1.06-3.21,1.06-5.09s-.35-3.54-1.06-5.05Zm-5.26,8.04c-.38,.89-.89,1.65-1.54,2.29-.65,.64-1.38,1.12-2.2,1.47-.82,.34-1.67,.51-2.54,.51s-1.73-.17-2.55-.51-1.55-.83-2.18-1.47c-.64-.63-1.14-1.4-1.52-2.29-.38-.89-.57-1.89-.57-2.99s.19-2.09,.57-2.97c.38-.88,.88-1.64,1.52-2.27,.63-.64,1.36-1.12,2.18-1.47,.82-.34,1.67-.51,2.55-.51s1.73,.17,2.54,.51c.82,.34,1.55,.83,2.2,1.47,.65,.63,1.16,1.39,1.54,2.27,.38,.88,.57,1.87,.57,2.97s-.19,2.09-.57,2.99Z"/></g><g><path d="M8.48,81.77v-23.37h5.68v18.5h9.38v4.87H8.48Z"/><path d="M40.89,81.77l-1.83-4.87h-7.69l-1.79,4.87h-5.35l9.19-23.55h3.92l9.19,23.55h-5.64Zm-4.91-13.84c-.12-.34-.24-.72-.37-1.14-.12-.42-.24-.83-.37-1.25h-.07c-.1,.42-.21,.83-.35,1.25-.13,.42-.26,.79-.38,1.14l-1.68,4.69h4.91l-1.68-4.69Z"/><path d="M62.68,81.77l-6.3-9.19h-2.01v9.19h-5.46v-23.37h8.72c1,0,1.95,.16,2.86,.49,.9,.33,1.7,.79,2.4,1.39,.7,.6,1.25,1.34,1.67,2.22,.42,.88,.62,1.87,.62,2.97,0,1.39-.35,2.6-1.04,3.63-.7,1.03-1.54,1.77-2.55,2.23l7.43,10.44h-6.34Zm-2.97-16.3c0-.88-.31-1.53-.92-1.96-.61-.43-1.28-.64-2.01-.64h-2.42v5.24h2.42c.73,0,1.4-.21,2.01-.62,.61-.42,.92-1.09,.92-2.01Z"/></g></g><rect x="-38.09" y="38.64" width="81.21" height="5.03" transform="translate(43.67 38.64) rotate(90)"/></g></g></svg>