<?xml version="1.0" encoding="UTF-8"?><svg id="Capa_2" xmlns="http://www.w3.org/2000/svg" viewBox="0 0 770.54 481.86"><g id="Capa_1-2"><g><g><g><path d="M333.91,199.78c0,.92-.17,1.75-.51,2.47-.34,.73-.8,1.34-1.38,1.85-.58,.5-1.25,.89-2.01,1.16-.76,.27-1.57,.41-2.42,.41h-3.97v-11.78h3.97c.85,0,1.66,.14,2.42,.41,.76,.27,1.43,.66,2.01,1.16,.58,.5,1.04,1.12,1.38,1.85,.34,.73,.51,1.55,.51,2.47Zm-2.86,0c0-.57-.1-1.06-.3-1.5-.2-.43-.48-.79-.82-1.08-.34-.29-.74-.5-1.2-.65-.46-.14-.94-.21-1.46-.21h-.89v6.87h.89c.52,0,1-.07,1.46-.21,.46-.14,.86-.36,1.2-.65,.34-.29,.62-.65,.82-1.07,.2-.42,.3-.93,.3-1.5Z"/><path d="M345.37,203.42c-.27,.53-.64,.98-1.1,1.35-.46,.37-1,.66-1.62,.86-.62,.2-1.28,.3-1.98,.3s-1.36-.1-1.98-.3c-.62-.2-1.16-.49-1.62-.86-.46-.37-.82-.82-1.09-1.35-.26-.53-.4-1.12-.4-1.77v-7.75h2.86v7.49c0,.6,.21,1.09,.62,1.47,.41,.38,.96,.56,1.65,.56s1.24-.19,1.66-.56c.42-.38,.63-.86,.63-1.47v-7.49h2.79v7.75c0,.65-.14,1.24-.41,1.77Z"/></g><g><path d="M335.71,179.31h-2.34l-2.55,4.95c-.21,.41-.41,.83-.61,1.26-.2,.44-.37,.85-.52,1.25h-.04c-.16-.39-.35-.82-.58-1.29-.23-.47-.43-.87-.6-1.22l-2.57-4.95h-2.28v11.78h1.69l.37-4.34c.02-.33,.05-.68,.07-1.03,.02-.36,.04-.73,.04-1.13h.04c.15,.38,.31,.76,.48,1.14s.34,.73,.52,1.08l2.23,4.32h1.14l2.22-4.32c.17-.35,.35-.71,.53-1.09,.18-.38,.34-.76,.47-1.14h.04c0,.38,.01,.75,.04,1.12,.02,.36,.05,.72,.07,1.06l.39,4.34h2.81l-1.05-11.78Z"/><path d="M350.29,182.64c-.36-.76-.83-1.41-1.42-1.94-.59-.53-1.27-.94-2.03-1.23-.76-.29-1.55-.43-2.36-.43s-1.6,.15-2.36,.43c-.76,.29-1.44,.7-2.02,1.23-.58,.53-1.06,1.17-1.41,1.94-.36,.76-.54,1.61-.54,2.55s.18,1.8,.54,2.57c.36,.76,.83,1.41,1.41,1.95,.58,.54,1.26,.95,2.02,1.24,.76,.29,1.55,.43,2.36,.43s1.6-.15,2.36-.43c.76-.29,1.44-.7,2.03-1.24,.59-.54,1.06-1.18,1.42-1.95,.36-.76,.54-1.62,.54-2.57s-.18-1.78-.54-2.55Zm-2.65,4.05c-.19,.45-.45,.83-.77,1.15-.33,.32-.7,.57-1.11,.74-.41,.17-.84,.26-1.28,.26s-.87-.09-1.28-.26-.78-.42-1.1-.74c-.32-.32-.58-.7-.77-1.15-.19-.45-.29-.95-.29-1.51s.09-1.05,.29-1.5c.19-.44,.45-.82,.77-1.14,.32-.32,.69-.57,1.1-.74s.84-.26,1.28-.26,.87,.09,1.28,.26c.41,.17,.78,.42,1.11,.74,.33,.32,.58,.7,.77,1.14,.19,.44,.29,.94,.29,1.5s-.09,1.06-.29,1.51Z"/></g><g><path d="M323.63,220.24v-11.78h2.86v9.32h4.73v2.45h-7.59Z"/><path d="M339.97,220.24l-.92-2.45h-3.88l-.9,2.45h-2.69l4.63-11.87h1.98l4.63,11.87h-2.84Zm-2.47-6.98c-.06-.17-.12-.36-.18-.57-.06-.21-.12-.42-.18-.63h-.04c-.05,.21-.11,.42-.18,.63-.07,.21-.13,.4-.19,.57l-.85,2.36h2.47l-.85-2.36Z"/><path d="M350.95,220.24l-3.17-4.63h-1.02v4.63h-2.75v-11.78h4.39c.5,0,.98,.08,1.44,.25,.46,.17,.86,.4,1.21,.7,.35,.3,.63,.67,.84,1.12,.21,.44,.31,.94,.31,1.5,0,.7-.18,1.31-.53,1.83-.35,.52-.78,.89-1.28,1.13l3.75,5.26h-3.19Zm-1.5-8.21c0-.44-.15-.77-.46-.99-.31-.22-.65-.32-1.02-.32h-1.22v2.64h1.22c.37,0,.71-.1,1.02-.31,.31-.21,.46-.55,.46-1.02Z"/></g></g><polyline points="711.25 376.31 668.68 345 597.31 308.69 540.96 298.67 483.36 278.64 443.3 287.41 415.75 288.66 396.97 278.64 379.44 254.85 336.87 242.33 294.29 231.76 257.98 212.28 202.32 187.18" fill="none" stroke="#fdec47" stroke-miterlimit="10" stroke-width="4"/><polyline points="711.25 397.59 668.05 405.1 646.76 405.1 585.41 401.35 532.82 397.59 511.54 405.1 376.31 363.78 319.96 345 286.16 345 237.32 338.74 202.32 314.95" fill="none" stroke="#fdec47" stroke-miterlimit="10" stroke-width="4"/><polyline points="368.79 481.86 368.79 334.99 355.02 301.18 391.33 213.53 410.11 174.72 410.11 115.87" fill="none" stroke="#fdec47" stroke-miterlimit="10" stroke-width="4"/><polyline points="202.32 16.59 234.82 47.18 345 85.82 362.76 95.42 421.38 127.14 447.68 187.18 481.48 221.04 510.28 242.33 552.28 300.69" fill="none" stroke="#fdec47" stroke-miterlimit="10" stroke-width="4"/><line x1="366.9" y1="104.31" x2="403.85" y2=".67" fill="none" stroke="#fdec47" stroke-miterlimit="10" stroke-width="4"/><g><polygon points="474.86 127.42 367.54 130.24 366.9 104.31 474.21 101.49 474.86 127.42" fill="#fdec47"/><text transform="translate(373.5 124.54)" font-family="Agenda-Bold, Agenda" font-size="23.62"><tspan x="0" y="0">Campana</tspan></text></g><g><polygon points="441.8 304.81 383.21 306.42 382.57 280.49 441.15 278.88 441.8 304.81" fill="#fdec47"/><text transform="translate(389.17 300.72)" font-family="Agenda-Bold, Agenda" font-size="23.62"><tspan x="0" y="0">Pi</tspan><tspan x="18.28" y="0" letter-spacing="-.01em">l</tspan><tspan x="24.4" y="0">ar</tspan></text></g><g><polygon points="770.54 403.81 669.7 406.56 668.68 365.54 769.52 362.79 770.54 403.81" fill="#fdec47"/><text transform="translate(679.12 397.55)" font-family="Agenda-Bold, Agenda" font-size="37.37"><tspan x="0" y="0" letter-spacing="-.01em">C</tspan><tspan x="21.38" y="0">A</tspan><tspan x="44.88" y="0" letter-spacing="-.02em">B</tspan><tspan x="64.27" y="0">A</tspan></text></g><g><rect x=".29" y="144.4" width="224.83" height="25.94" transform="translate(-3.99 2.93) rotate(-1.46)" fill="#fdec47"/><text transform="translate(3.9 163.01)" font-family="Agenda-Bold, Agenda" font-size="23.62"><tspan x="0" y="0" letter-spacing="0em">S</tspan><tspan x="11.83" y="0">an An</tspan><tspan x="67.79" y="0" letter-spacing="-.01em">t</tspan><tspan x="76.55" y="0">onio de A</tspan><tspan x="170.94" y="0" letter-spacing="-.03em">r</tspan><tspan x="178.78" y="0">e</tspan><tspan x="190.35" y="0" letter-spacing="-.02em">c</tspan><tspan x="200.3" y="0" letter-spacing="0em">o</tspan></text></g><g><polygon points="488.72 287.76 479.53 291.22 470.34 287.76 470.34 272.26 488.72 272.26 488.72 287.76" fill="#fff" stroke="#000" stroke-miterlimit="10"/><text transform="translate(475.07 286.28)" font-family="MyriadPro-Regular, &apos;Myriad Pro&apos;" font-size="16.75"><tspan x="0" y="0">8</tspan></text></g><g><polygon points="527.15 406.88 517.96 410.34 508.77 406.88 508.77 391.38 527.15 391.38 527.15 406.88" fill="#fff" stroke="#000" stroke-miterlimit="10"/><text transform="translate(513.5 405.4)" font-family="MyriadPro-Regular, &apos;Myriad Pro&apos;" font-size="16.75"><tspan x="0" y="0">7</tspan></text></g><g><polygon points="325.94 243.43 316.75 246.89 307.56 243.43 307.56 227.93 325.94 227.93 325.94 243.43" fill="#fff" stroke="#000" stroke-miterlimit="10"/><text transform="translate(312.3 241.95)" font-family="MyriadPro-Regular, &apos;Myriad Pro&apos;" font-size="16.75"><tspan x="0" y="0">8</tspan></text></g><g><polygon points="536.34 266.81 527.15 270.27 517.96 266.81 517.96 251.31 536.34 251.31 536.34 266.81" fill="#fff" stroke="#000" stroke-miterlimit="10"/><text transform="translate(522.69 265.33)" font-family="MyriadPro-Regular, &apos;Myriad Pro&apos;" font-size="16.75"><tspan x="0" y="0">9</tspan></text></g><g><polygon points="307.56 69.51 298.37 72.98 289.18 69.51 289.18 54.02 307.56 54.02 307.56 69.51" fill="#fff" stroke="#000" stroke-miterlimit="10"/><text transform="translate(293.92 68.04)" font-family="MyriadPro-Regular, &apos;Myriad Pro&apos;" font-size="16.75"><tspan x="0" y="0">9</tspan></text></g><g><polygon points="407.97 203.27 398.78 206.73 389.59 203.27 389.59 187.77 407.97 187.77 407.97 203.27" fill="#fff" stroke="#000" stroke-miterlimit="10"/><text transform="translate(394.33 201.79)" font-family="MyriadPro-Regular, &apos;Myriad Pro&apos;" font-size="16.75"><tspan x="0" y="0">6</tspan></text></g><g><polygon points="373.17 329.43 363.98 332.89 354.79 329.43 354.79 313.93 373.17 313.93 373.17 329.43" fill="#fff" stroke="#000" stroke-miterlimit="10"/><text transform="translate(359.53 327.95)" font-family="MyriadPro-Regular, &apos;Myriad Pro&apos;" font-size="16.75"><tspan x="0" y="0">6</tspan></text></g><circle cx="336.87" cy="242.33" r="7.68"/><circle cx="391.33" cy="213.53" r="170.05" fill="none" stroke="#000" stroke-miterlimit="10"/><g><polygon points="376.74 372.06 313 373.8 312.35 347.87 376.1 346.13 376.74 372.06" fill="#fdec47"/><text transform="translate(318.95 368.1)" font-family="Agenda-Bold, Agenda" font-size="23.62"><tspan x="0" y="0">Luján</tspan></text></g><g><rect x="359.13" y="45.2" width="173.75" height="25.94" transform="translate(-1.35 11.51) rotate(-1.48)" fill="#fdec47"/><text transform="translate(362.74 63.17)" font-family="Agenda-Bold, Agenda" font-size="23.62"><tspan x="0" y="0">Pue</tspan><tspan x="36.35" y="0" letter-spacing="0em">r</tspan><tspan x="45.21" y="0" letter-spacing="-.01em">t</tspan><tspan x="53.97" y="0" letter-spacing="0em">o de Zá</tspan><tspan x="126.46" y="0" letter-spacing="-.03em">r</tspan><tspan x="134.38" y="0" letter-spacing="-.02em">a</tspan><tspan x="145.05" y="0" letter-spacing="-.01em">t</tspan><tspan x="153.81" y="0">e</tspan></text></g></g></g></svg>